<svg version="1.1" id="Layer_1" xmlns="http://www.w3.org/2000/svg" x="0" y="0" viewBox="0 0 107 194" xml:space="preserve"><linearGradient id="SVGID_1_" gradientUnits="userSpaceOnUse" x1="50.462" y1="189.084" x2="50.974" y2="180.371" gradientTransform="matrix(1 0 0 -1 0 196)"><stop offset="0" stop-color="#c20202"/><stop offset="1" stop-color="#e60000"/></linearGradient><path d="M104 0H3v116.9h101V0z" fill="url(#SVGID_1_)"/><path d="M104 116.8H3v44.3L53.5 190l50.5-28.9v-44.3z" fill="#002171"/><path d="M28.1 31.4v1.4c0 2.5-.8 4.6-2.4 6.2-1.6 1.6-3.7 2.4-6.3 2.4-2.7 0-5-.9-6.8-2.7-1.8-1.8-2.7-4-2.7-6.5 0-2.6.9-4.8 2.7-6.6 1.8-1.8 4-2.7 6.6-2.7 3.3 0 6.2 1.6 7.7 4.1l-3 1.7c-.8-1.4-2.7-2.5-4.8-2.5-1.7 0-3.1.6-4.2 1.7s-1.6 2.5-1.6 4.2c0 1.7.6 3.1 1.6 4.2 1.1 1.1 2.6 1.6 4.4 1.6 2.7 0 4.5-1.3 5.2-3.4h-5.4v-3.1h9zm5.3-.9c.6-1.6 2-2.4 3.7-2.4v3.6c-.9-.1-1.8.1-2.5.6s-1.1 1.4-1.1 2.6V41h-3.1V28.3h3.1v2.2zm8.9 5.5c.4 1.6 1.6 2.4 3.6 2.4 1.2 0 2.2-.4 2.8-1.3l2.6 1.5c-1.2 1.8-3.1 2.7-5.5 2.7-2.1 0-3.8-.6-5-1.9-1.3-1.3-1.9-2.9-1.9-4.8s.6-3.5 1.9-4.8c1.2-1.3 2.9-1.9 4.8-1.9 1.8 0 3.4.6 4.6 1.9 1.2 1.3 1.8 2.9 1.8 4.8 0 .4-.1.9-.1 1.3h-9.6zm6.4-2.6c-.4-1.7-1.6-2.6-3.1-2.6-1.7 0-2.9.9-3.3 2.6h6.4zm15-5.1H67V41h-3.3v-1.5c-1 1.2-2.4 1.8-4.1 1.8-1.7 0-3.1-.6-4.4-1.9-1.2-1.3-1.8-2.9-1.8-4.8s.6-3.4 1.8-4.7c1.2-1.3 2.7-1.9 4.4-1.9 1.8 0 3.1.6 4.1 1.8v-1.5zm-3.5 9.9c1 0 1.8-.3 2.5-1s1-1.5 1-2.6c0-1-.3-1.9-1-2.6-.7-.7-1.5-1-2.5-1s-1.8.3-2.5 1-1 1.5-1 2.6c0 1 .3 1.9 1 2.6.6.7 1.5 1 2.5 1zm17.5-6.8h-2.9v5.3c0 1.4 1 1.4 2.9 1.3v3c-4.5.5-6.1-.8-6.1-4.3v-5.3h-2.2v-3.1h2.2v-2.6l3.3-1v3.5h2.9v3.2zM18.9 45.5c1.7 0 3.1.6 4.3 1.7 1.2 1.1 1.7 2.6 1.7 4.2 0 1.7-.6 3.1-1.7 4.2-1.2 1.1-2.6 1.7-4.3 1.7h-3.1v5.8h-3.5V45.5h6.6zm0 8.6c1.5 0 2.6-1.2 2.6-2.7 0-1.5-1.1-2.7-2.6-2.7h-3.1v5.4h3.1zm8.4 9.1V45.7h3.3v17.6h-3.3zm16.4-12.6H47v12.7h-3.3v-1.5c-1 1.2-2.4 1.8-4.1 1.8-1.7 0-3.1-.6-4.4-1.9-1.2-1.3-1.8-2.9-1.8-4.8s.6-3.4 1.8-4.7c1.2-1.3 2.7-1.9 4.4-1.9 1.8 0 3.1.6 4.1 1.8v-1.5zm-3.5 9.9c1 0 1.8-.3 2.5-1s1-1.5 1-2.6c0-1-.3-1.9-1-2.6-.7-.7-1.5-1-2.5-1s-1.8.3-2.5 1-1 1.5-1 2.6c0 1 .3 1.9 1 2.6.6.6 1.4 1 2.5 1zm11.5 1.2c-1.3-1.3-1.9-2.9-1.9-4.8s.6-3.5 1.9-4.8c1.3-1.3 2.9-1.9 4.8-1.9 2.5 0 4.6 1.3 5.7 3.3l-2.8 1.6c-.5-1-1.6-1.7-2.9-1.7-1.9 0-3.4 1.4-3.4 3.5 0 1 .3 1.8 1 2.5.6.6 1.4 1 2.4 1 1.3 0 2.4-.6 2.9-1.7l2.8 1.6c-1.1 2-3.3 3.3-5.7 3.3-2 0-3.6-.6-4.8-1.9zm15.7-3.5c.4 1.6 1.6 2.4 3.6 2.4 1.2 0 2.2-.4 2.8-1.3l2.6 1.5c-1.2 1.8-3.1 2.7-5.5 2.7-2.1 0-3.8-.6-5-1.9-1.3-1.3-1.9-2.9-1.9-4.8s.6-3.5 1.9-4.8c1.2-1.3 2.9-1.9 4.8-1.9 1.8 0 3.4.6 4.6 1.9 1.2 1.3 1.8 2.9 1.8 4.8 0 .4-.1.9-.1 1.3h-9.6zm6.4-2.5c-.4-1.7-1.6-2.6-3.1-2.6-1.7 0-2.9.9-3.3 2.6h6.4zM23 68.7v3.2h-4.8v13.7h-3.5V71.8H9.9v-3.2H23zm5.4 17.1c-1.9 0-3.5-.6-4.8-1.9-1.3-1.3-1.9-2.9-1.9-4.8s.6-3.4 1.9-4.7c1.3-1.3 2.9-1.9 4.8-1.9s3.5.7 4.8 1.9c1.3 1.3 1.9 2.9 1.9 4.7 0 1.9-.7 3.5-1.9 4.8-1.3 1.3-2.9 1.9-4.8 1.9zm0-3.1c1 0 1.8-.3 2.5-1s1-1.5 1-2.5-.3-1.8-1-2.5-1.5-1-2.5-1-1.8.3-2.5 1c-.6.7-1 1.5-1 2.5s.3 1.8 1 2.5c.7.6 1.5 1 2.5 1zm-13 26.1l-5-17.7h3.7l3.4 13.1 3.7-13.1h3l3.7 13.1 3.4-13.1H35l-5 17.7h-4l-3.3-11.7-3.3 11.7h-4zm25.9.3c-1.9 0-3.5-.6-4.8-1.9-1.3-1.3-1.9-2.9-1.9-4.8s.6-3.4 1.9-4.7c1.3-1.3 2.9-1.9 4.8-1.9s3.5.7 4.8 1.9c1.3 1.3 1.9 2.9 1.9 4.7 0 1.9-.7 3.5-1.9 4.8-1.3 1.3-2.9 1.9-4.8 1.9zm0-3.2c1 0 1.8-.3 2.5-1s1-1.5 1-2.5-.3-1.8-1-2.5-1.5-1-2.5-1-1.8.3-2.5 1c-.6.7-1 1.5-1 2.5s.3 1.8 1 2.5 1.5 1 2.5 1zm12.3-7.6c.6-1.6 2.1-2.4 3.8-2.4v3.6c-1-.1-1.9.1-2.7.6-.8.5-1.2 1.4-1.2 2.6v6.1h-3.3V96.1h3.3v2.2zm17.9 10.5h-3.8l-4.6-5.7v5.7h-3.3V91.1h3.3v10.6l4.4-5.6h3.9l-5.1 6.3 5.2 6.4zm1.2-2.3c0-1.6 1.3-2.9 2.9-2.9 1.6 0 2.9 1.3 2.9 2.8 0 1.6-1.3 2.9-2.9 2.9-1.6 0-2.9-1.2-2.9-2.8zm5.2 0c0-1.4-1-2.4-2.3-2.4-1.4 0-2.3 1-2.3 2.4s1 2.4 2.3 2.4c1.3 0 2.3-1 2.3-2.4zm-3.3-1.5h1c.7 0 1.1.3 1.1.9 0 .4-.2.7-.6.8l.7 1.2h-.6l-.7-1.1h-.3v1.1h-.6V105zm1 1.3c.3 0 .5-.1.5-.4 0-.3-.2-.4-.5-.4h-.4v.8h.4zm-56 23.9h2.5c-.1-.7-.3-1.3-.6-1.8s-.7-1-1.1-1.3c-.4-.4-1-.6-1.5-.8-.6-.2-1.2-.3-1.8-.3-.9 0-1.7.2-2.4.5s-1.3.8-1.8 1.3c-.5.6-.9 1.2-1.1 2-.3.7-.4 1.5-.4 2.4 0 .8.1 1.6.4 2.4.3.7.6 1.4 1.1 1.9.5.5 1.1 1 1.8 1.3.7.3 1.5.5 2.4.5.7 0 1.4-.1 2-.3.6-.2 1.1-.5 1.6-.9.4-.4.8-.9 1.1-1.5.3-.6.4-1.2.5-2h-2.5c-.1.8-.4 1.4-.8 1.9s-1 .7-1.8.7c-.6 0-1.1-.1-1.5-.3-.4-.2-.7-.5-1-.9-.3-.4-.4-.8-.6-1.2-.1-.5-.2-.9-.2-1.4 0-.5.1-1 .2-1.5s.3-.9.6-1.3.6-.7 1-.9c.4-.2.9-.3 1.5-.3.3 0 .6.1.9.2.3.1.6.2.8.4s.4.4.6.7c0 0 .1.2.1.5zm9.8 2.6h-3.8c0-.2 0-.3.1-.6l.3-.6c.2-.2.3-.3.6-.5.3-.1.6-.2.9-.2.6 0 1 .2 1.3.5.3.4.5.9.6 1.4zm-3.8 1.5h6.1c0-.7 0-1.3-.2-1.9-.2-.6-.4-1.1-.8-1.6-.3-.5-.8-.8-1.3-1.1-.5-.3-1.2-.4-1.9-.4-.6 0-1.2.1-1.8.3-.5.2-1 .5-1.4.9-.4.4-.7.9-.9 1.4-.2.5-.3 1.1-.3 1.8s.1 1.3.3 1.8c.2.5.5 1 .9 1.4.4.4.8.7 1.4.9.5.2 1.1.3 1.8.3 1 0 1.8-.2 2.5-.7.7-.4 1.2-1.2 1.5-2.2h-2c-.1.3-.3.5-.6.8-.3.2-.7.3-1.2.3-.7 0-1.2-.2-1.5-.5-.4-.2-.6-.7-.6-1.5zm7.5-4.8v8.4h2.3v-3.8c0-.4 0-.7.1-1.1.1-.3.2-.6.4-.8.2-.3.4-.4.7-.6.3-.1.7-.2 1.1-.2h.8v-2.2c-.2-.1-.4-.1-.5-.1-.3 0-.6 0-.8.1-.3.1-.5.2-.8.4-.2.2-.5.3-.6.6-.2.2-.3.5-.4.7v-1.6h-2.3zm9.3 0V127H40v2.5h-1.4v1.6H40v5c0 .4.1.8.2 1 .1.3.3.5.6.6.3.1.5.2.8.3.3.1.7.1 1 .1h.7c.2 0 .5 0 .7-.1v-1.8h-.7c-.4 0-.7-.1-.8-.2-.1-.1-.2-.4-.2-.8V131H44v-1.6h-1.6zm4.2-1.3c.5 0 1-.4 1-1s-.4-1-1-1h-.4c-.5 0-1 .4-1 1s.4 1 1 1h.4zm-1.4 1.3v8.4h2.3v-8.4h-2.3zm4.7 1.6v6.9h2.3v-6.9h1.6v-1.6h-1.6v-.5c0-.3.1-.6.2-.7.1-.2.4-.2.7-.2h.8v-1.7h-1.2c-.9 0-1.7.2-2.1.7-.5.5-.7 1.1-.7 1.8v.7h-1.4v1.6h1.4zm6.4-2.9c.5 0 1-.4 1-1s-.4-1-1-1h-.4c-.5 0-1 .4-1 1s.4 1 1 1h.4zm-1.4 1.3v8.4h2.3v-8.4h-2.3zm9.9 3h2.3c0-.5-.2-1-.4-1.4-.2-.4-.5-.7-.9-1-.4-.3-.8-.5-1.2-.6-.5-.1-.9-.2-1.4-.2-.7 0-1.3.1-1.8.3-.5.2-1 .6-1.4 1-.4.4-.7.9-.8 1.5-.2.6-.3 1.2-.3 1.8 0 .6.1 1.2.3 1.7.2.5.5 1 .9 1.4.4.4.8.7 1.3.9.5.2 1.1.3 1.7.3 1.1 0 2-.3 2.8-.9.7-.6 1.2-1.4 1.3-2.6H65c-.1.5-.3.9-.6 1.3-.3.3-.7.5-1.3.5-.4 0-.7-.1-.9-.2-.3-.2-.5-.4-.6-.6l-.3-.9c-.1-.3-.1-.6-.1-.9 0-.3 0-.6.1-.9l.3-.9c.2-.3.4-.5.6-.7.3-.2.6-.3.9-.3 1-.1 1.5.4 1.7 1.4zm3.5-.4c0-.5.2-1 .4-1.4.2-.4.5-.6.9-.9.4-.2.8-.4 1.2-.5.5-.1.9-.1 1.4-.1.4 0 .9 0 1.3.1l1.2.3c.4.2.7.4.9.7.2.3.3.7.3 1.2v4.4c0 .4 0 .7.1 1.1 0 .3.1.6.2.8h-2.4c0-.1-.1-.3-.1-.4v-.4c-.4.4-.8.6-1.3.8-.5.2-1 .2-1.5.2-.4 0-.8 0-1.1-.1-.3-.1-.7-.3-.9-.5-.3-.2-.5-.5-.6-.8-.1-.3-.2-.7-.2-1.1 0-.5.1-.9.2-1.2.2-.3.4-.6.7-.8.3-.2.6-.3.9-.4.3-.1.7-.2 1-.2.3-.1.7-.1 1-.1.3 0 .6-.1.9-.1.3-.1.5-.2.6-.3.2-.1.2-.3.2-.6s0-.4-.1-.6c-.1-.2-.2-.3-.3-.3-.1-.1-.3-.1-.5-.2-.2 0-.4-.1-.6-.1-.5 0-.8.1-1.1.3-.3.2-.4.5-.5 1h-2.2zm5.4 1.7c-.1.1-.2.2-.4.2-.1 0-.3.1-.5.1s-.3.1-.5.1-.4 0-.6.1c-.2 0-.3.1-.5.1-.2.1-.3.1-.4.2l-.3.3c-.1.1-.1.3-.1.5s0 .4.1.5c.1.1.2.3.3.3.1.1.3.1.5.2h.5c.5 0 .8-.1 1.1-.2.3-.2.4-.3.6-.5.1-.2.2-.4.2-.7v-1.2zm10.1-.1c0 .3 0 .7-.1 1l-.3.9c-.2.3-.4.5-.6.6-.3.2-.6.2-.9.2-.4 0-.7-.1-.9-.2-.3-.2-.5-.4-.6-.6-.2-.3-.3-.6-.4-.9-.1-.3-.1-.7-.1-1 0-.3 0-.7.1-1l.3-.9c.2-.3.4-.5.6-.6.3-.2.6-.2 1-.2s.7.1.9.2c.3.2.5.4.6.6.2.2.3.5.3.9.1.3.1.7.1 1zm0 3.2v1.1H86v-11.7h-2.3v4.2c-.3-.4-.6-.7-1.1-.9-.4-.2-.9-.3-1.4-.3-.6 0-1.2.1-1.6.4-.5.2-.9.6-1.2 1-.3.4-.5.9-.7 1.4-.2.5-.2 1.1-.2 1.6 0 .6.1 1.2.2 1.7.2.5.4 1 .7 1.5.3.4.7.7 1.2 1 .5.2 1 .4 1.7.4.6 0 1.1-.1 1.5-.3.4-.3.7-.6 1-1.1zm6.1-3.1c0-.3 0-.7.1-1l.3-.9c.2-.3.4-.5.6-.6.3-.2.6-.2 1-.2s.7.1 1 .2c.3.2.5.4.6.6.2.3.3.5.3.9.1.3.1.7.1 1 0 .3 0 .7-.1 1l-.3.9c-.2.3-.4.5-.6.6-.3.2-.6.2-1 .2s-.7-.1-1-.2c-.3-.2-.5-.4-.6-.6-.2-.3-.3-.6-.3-.9-.1-.4-.1-.7-.1-1zm-2.4 0c0 .7.1 1.3.3 1.8s.5 1 .9 1.4c.4.4.8.7 1.4.9.5.2 1.1.3 1.8.3s1.3-.1 1.8-.3c.5-.2 1-.5 1.4-.9.4-.4.7-.9.9-1.4s.3-1.2.3-1.8c0-.7-.1-1.3-.3-1.8-.2-.6-.5-1-.9-1.4-.4-.4-.8-.7-1.4-.9-.5-.2-1.1-.3-1.8-.3s-1.3.1-1.8.3c-.5.2-1 .5-1.4.9-.4.4-.7.8-.9 1.4-.2.5-.3 1.1-.3 1.8zm-43.9 34.9c1 0 1.5-.6 1.5-1.4 0-.6-.4-1.2-1-1.3.5-.1.9-.5.9-1.2s-.5-1.3-1.5-1.3H41v5.1h2.6zm-.2-3H42v-1.3h1.4c.5 0 .7.3.7.7 0 .4-.3.6-.7.6zm0 2.2h-1.5v-1.4h1.5c.5 0 .8.3.8.7 0 .5-.3.7-.8.7zm6.6.8l-1.3-2c.6-.1 1.2-.6 1.2-1.5 0-1-.7-1.6-1.7-1.6H46v5.1h.9v-1.9h.9l1.1 1.9H50zm-1.8-2.7H47v-1.6h1.2c.5 0 .9.3.9.8-.1.5-.4.8-.9.8zm7.3 2.7l-2-5.1h-1.1l-2 5.1h1l.4-1h2.4l.4 1h.9zm-1.7-1.7H52l.9-2.4.9 2.4zm3.9 1.8c1.4 0 2-.7 2-1.6 0-1.9-3-1.3-3-2.3 0-.4.3-.6.9-.6.5 0 1.1.2 1.5.6l.5-.7c-.5-.5-1.1-.7-1.9-.7-1.1 0-1.9.7-1.9 1.5 0 1.9 3 1.2 3 2.3 0 .3-.3.7-1 .7s-1.3-.3-1.6-.7l-.5.7c.4.5 1.1.8 2 .8zm3.7-.1v-5.1h-.9v5.1h.9zm4.2 0v-.8h-2.3v-4.3h-.9v5.1h3.2zm-52-18.9h-1.1v-4.2c-.4.4-.9.7-1.4.8v-1c.3-.1.6-.3.9-.5.3-.3.6-.6.7-.9h.9v5.8zm1.7-4.7v-1h3.8v.8c-.3.3-.6.8-1 1.3-.3.6-.6 1.2-.7 1.8s-.3 1.2-.3 1.8H16c0-.8.2-1.6.5-2.5.3-.8.7-1.6 1.3-2.2h-2.5zm4.1 4.8l1.4-6h.8l-1.5 6h-.7zm4.5-5.9c.6 0 1 .2 1.3.6.4.5.6 1.3.6 2.4 0 1.1-.2 1.9-.6 2.4-.3.4-.8.6-1.3.6-.6 0-1-.2-1.4-.7-.3-.4-.5-1.2-.5-2.3 0-1.1.2-1.9.6-2.4.3-.4.8-.6 1.3-.6zm0 .9c-.1 0-.3 0-.4.1-.1.1-.2.2-.2.5-.1.3-.1.8-.1 1.5s0 1.2.1 1.4c.1.3.2.4.3.5.1.1.2.1.4.1s.3 0 .4-.1.2-.2.2-.5c.1-.3.1-.8.1-1.5s0-1.2-.1-1.4-.2-.4-.3-.5c-.1 0-.2-.1-.4-.1zm2.7.2v-1h3.8v.8c-.3.3-.6.8-1 1.3-.3.6-.6 1.2-.7 1.8s-.3 1.2-.3 1.8h-1.1c0-.8.2-1.6.5-2.5.3-.8.7-1.6 1.3-2.2h-2.5zm4.2 4.8l1.4-6h.8l-1.5 6h-.7zm6.3-1.1v1h-3.9c0-.4.2-.8.4-1.1.2-.3.6-.8 1.3-1.4.5-.5.8-.8.9-1 .2-.2.2-.5.2-.7 0-.3-.1-.4-.2-.6-.1-.1-.3-.2-.6-.2-.2 0-.4.1-.6.2s-.2.4-.2.7l-1.1-.1c.1-.6.3-1.1.6-1.3.3-.3.8-.4 1.3-.4.6 0 1 .2 1.4.5s.5.7.5 1.2c0 .3 0 .5-.1.8-.1.2-.2.5-.4.7-.1.2-.4.4-.7.7-.4.3-.6.5-.7.6-.1.1-.2.2-.2.3h2.1zm2.7-4.8c.6 0 1 .2 1.3.6.4.5.6 1.3.6 2.4 0 1.1-.2 1.9-.6 2.4-.3.4-.8.6-1.3.6-.6 0-1-.2-1.4-.7-.3-.4-.5-1.2-.5-2.3 0-1.1.2-1.9.6-2.4.3-.4.7-.6 1.3-.6zm0 .9c-.1 0-.3 0-.4.1-.1.1-.2.2-.2.5-.1.3-.1.8-.1 1.5s0 1.2.1 1.4c.1.3.2.4.3.5.1.1.2.1.4.1s.3 0 .4-.1.2-.2.2-.5c.1-.3.1-.8.1-1.5s0-1.2-.1-1.4-.2-.4-.3-.5c-.2 0-.3-.1-.4-.1zm6.4 3.9v1h-3.9c0-.4.2-.8.4-1.1.2-.3.6-.8 1.3-1.4.5-.5.8-.8.9-1 .2-.2.2-.5.2-.7 0-.3-.1-.4-.2-.6-.1-.1-.3-.2-.6-.2-.2 0-.4.1-.6.2s-.2.4-.2.7l-1.1-.1c.1-.6.3-1.1.6-1.3.3-.3.8-.4 1.3-.4.6 0 1 .2 1.4.5s.5.7.5 1.2c0 .3 0 .5-.1.8-.1.2-.2.5-.4.7-.1.2-.4.4-.7.7-.4.3-.6.5-.7.6-.1.1-.2.2-.2.3h2.1zm2.6-4.8c.6 0 1 .2 1.3.6.4.5.6 1.3.6 2.4 0 1.1-.2 1.9-.6 2.4-.3.4-.8.6-1.3.6-.6 0-1-.2-1.4-.7-.3-.4-.5-1.2-.5-2.3 0-1.1.2-1.9.6-2.4.3-.4.8-.6 1.3-.6zm0 .9c-.1 0-.3 0-.4.1-.1.1-.2.2-.2.5-.1.3-.1.8-.1 1.5s0 1.2.1 1.4c.1.3.2.4.3.5.1.1.2.1.4.1s.3 0 .4-.1.2-.2.2-.5c.1-.3.1-.8.1-1.5s0-1.2-.1-1.4-.2-.4-.3-.5c-.1 0-.2-.1-.4-.1zm5.1 3.4v-1.1H56v1.1h-2.1zm7.7 1.5h-1.1v-4.2c-.4.4-.9.7-1.4.8v-1c.3-.1.6-.3 1-.5.3-.3.6-.6.7-.9h.9v5.8zm1.6-4.7v-1H67v.8c-.3.3-.6.8-1 1.3s-.6 1.2-.7 1.8-.3 1.2-.3 1.8h-1c0-.8.2-1.6.5-2.5.3-.8.7-1.6 1.3-2.2h-2.6zm4.2 4.8l1.4-6h.8l-1.5 6h-.7zm4.5-5.9c.6 0 1 .2 1.3.6.4.5.6 1.3.6 2.4 0 1.1-.2 1.9-.6 2.4-.3.4-.8.6-1.3.6-.6 0-1-.2-1.4-.7-.3-.4-.5-1.2-.5-2.3 0-1.1.2-1.9.6-2.4.3-.4.8-.6 1.3-.6zm0 .9c-.1 0-.3 0-.4.1-.1.1-.2.2-.2.5-.1.3-.1.8-.1 1.5s0 1.2.1 1.4c.1.3.2.4.3.5s.2.1.4.1.3 0 .4-.1c.1-.1.2-.2.2-.5.1-.3.1-.8.1-1.5s0-1.2-.1-1.4c-.1-.3-.2-.4-.3-.5-.1 0-.2-.1-.4-.1zm2.7.2v-1h3.8v.8c-.3.3-.6.8-1 1.3s-.6 1.2-.7 1.8-.3 1.2-.3 1.8h-1.1c0-.8.2-1.6.5-2.5.3-.8.7-1.6 1.3-2.2h-2.5zm4.1 4.8l1.4-6h.9l-1.5 6h-.8zm6.4-1.1v1h-3.9c0-.4.2-.8.4-1.1.2-.3.6-.8 1.3-1.4.5-.5.8-.8.9-1 .2-.2.2-.5.2-.7 0-.3-.1-.4-.2-.6-.1-.1-.3-.2-.6-.2-.2 0-.4.1-.6.2-.1.1-.2.4-.2.7l-1.1-.1c.1-.6.3-1.1.6-1.3s.8-.4 1.3-.4c.6 0 1 .2 1.4.5.3.3.5.7.5 1.2 0 .3 0 .5-.1.8-.1.2-.2.5-.4.7-.1.2-.4.4-.7.7-.4.3-.6.5-.7.6-.1.1-.2.2-.2.3h2.1zm2.7-4.8c.6 0 1 .2 1.3.6.4.5.6 1.3.6 2.4 0 1.1-.2 1.9-.6 2.4-.3.4-.8.6-1.3.6-.6 0-1-.2-1.4-.7-.3-.4-.5-1.2-.5-2.3 0-1.1.2-1.9.6-2.4.3-.4.7-.6 1.3-.6zm0 .9c-.1 0-.3 0-.4.1-.1.1-.2.2-.2.5-.1.3-.1.8-.1 1.5s0 1.2.1 1.4c.1.3.2.4.3.5s.2.1.4.1.3 0 .4-.1c.1-.1.2-.2.2-.5.1-.3.1-.8.1-1.5s0-1.2-.1-1.4c-.1-.3-.2-.4-.3-.5-.2 0-.3-.1-.4-.1zm6.4 3.9v1h-3.9c0-.4.2-.8.4-1.1.2-.3.6-.8 1.3-1.4.5-.5.8-.8.9-1 .2-.2.2-.5.2-.7 0-.3-.1-.4-.2-.6-.1-.1-.3-.2-.6-.2-.2 0-.4.1-.6.2-.1.1-.2.4-.2.7l-1.1-.1c.1-.6.3-1.1.6-1.3s.8-.4 1.3-.4c.6 0 1 .2 1.4.5.3.3.5.7.5 1.2 0 .3 0 .5-.1.8-.1.2-.2.5-.4.7-.1.2-.4.4-.7.7-.4.3-.6.5-.7.6-.1.1-.2.2-.2.3h2.1zm3.6 1h-1.1v-4.2c-.4.4-.9.7-1.4.8v-1c.3-.1.6-.3 1-.5.3-.3.6-.6.7-.9h.9v5.8z" fill="#fff"/></svg>