<svg xmlns="http://www.w3.org/2000/svg" viewBox="0 0 496 496"><path d="M290.912 214.208c-9.968-13.792-26.016-22.032-42.944-22.032s-32.976 8.24-42.944 22.048c-6.544 9.072-10 19.76-10 30.896 0 29.2 23.744 52.928 52.944 52.928s52.976-23.728 52.976-52.944c0-11.12-3.472-21.808-10.032-30.896zm-42.944 51.84c-11.552 0-20.944-9.392-20.944-20.928 0-4.368 1.36-8.576 3.952-12.16 4.016-5.568 10.224-8.768 16.992-8.768s12.976 3.184 16.992 8.752c2.608 3.616 3.984 7.824 3.984 12.176 0 11.552-9.408 20.928-20.976 20.928z"/><path d="M402.704 216.528h-79.376c-4.928 0-9.584 2.272-12.608 6.144s-4.112 8.928-2.928 13.712c2.096 8.416 3.984 12.384 5.424 14.48.08.624.08 1.424.08 2.544 0 34.496-28.08 60.512-65.312 60.512-38.464 0-65.328-23.888-65.328-58.096 0-2.592.16-3.264.16-3.264.144-.56.384-1.008.624-1.6 1.12-2.688 2.8-6.752 4.736-14.592a15.952 15.952 0 00-2.928-13.696 16.03 16.03 0 00-12.608-6.144H93.328c-8.832 0-16 7.168-16 16s7.168 16 16 16h57.728c-.272 2.016-.416 4.384-.416 7.296 0 51.36 41.84 90.096 97.328 90.096 55.472 0 97.312-39.76 97.344-92.512 0-1.84-.064-3.44-.176-4.88h57.568c8.832 0 16-7.168 16-16s-7.168-16-16-16zm-6-70.832h-.032L328 145.84l-.144-52.608c-.016-8.832-7.184-15.968-16-15.968h-.032c-8.848.016-15.984 7.2-15.968 16.032l.176 68.608c.016 8.832 7.184 15.968 16 15.968h.048l84.656-.176c8.832-.016 15.984-7.2 15.968-16.032-.016-8.832-7.184-15.968-16-15.968z"/><path d="M339.216 77.328H156.72c-42.288 0-79.392 34.32-79.392 73.44v182.48c0 38.448 36.64 85.424 79.392 85.424h182.496c42.784 0 79.456-46.976 79.456-85.424v-182.48c0-39.12-37.12-73.44-79.456-73.44zm47.456 255.92c0 24.464-25.728 53.424-47.456 53.424H156.72c-21.696 0-47.392-28.96-47.392-53.424v-182.48c0-21.296 23.024-41.44 47.392-41.44h182.496c24.4 0 47.456 20.144 47.456 41.44v182.48z"/><path d="M366.976 0H128.992C53.04 0 0 50.592 0 123.04v237.92C0 436.688 56.656 496 128.992 496h237.984C439.328 496 496 436.688 496 360.96V123.04C496 50.608 442.944 0 366.976 0zM464 360.96C464 419.696 422.304 464 366.976 464H128.992C73.696 464 32 419.712 32 360.96V123.04C32 67.728 70.064 32 128.992 32h237.984C425.92 32 464 67.728 464 123.04v237.92z"/></svg>