<svg xmlns="http://www.w3.org/2000/svg" viewBox="0 0 496.016 496.016"><path d="M320.24 309.32h-57.328c-31.296 0-31.296-12.96-31.296-21.536 0-5.12.224-13.968.512-23.792h80.288c28.656 0 57.68-16.848 57.68-49.072 0-34.912-19.152-60.256-45.536-60.256h-91.136c-1.504-28.8-9.696-72.224-55.136-72.224-22.336 0-40.736 13.424-48.032 35.008-6.656 19.6-6.288 41.056-5.952 59.984l.192 22.4c.016 7.296.112 14.624.208 21.952l.24 64.48c0 92.576 84.832 123.456 107.616 123.456 7.952 0 28.528.4 47.312.752 16.048.304 30.816.592 35.616.592 52.288 0 56.352-35.856 56.352-46.88 0-37.696-26.752-54.864-51.6-54.864zm-4.72 69.776c-4.72 0-19.232-.288-35.008-.592-19.04-.352-39.872-.752-47.904-.752-9.44-.192-75.648-19.376-75.648-91.456l-.256-64.896c-.096-7.232-.192-14.464-.208-21.6l-.192-22.896c-.288-17.136-.592-34.832 4.272-49.168 2.928-8.688 9.056-13.28 17.728-13.28 14.384 0 23.328 9.408 23.504 56.32.032 8.816 7.184 15.952 16 15.952h106.768c6.512 0 13.536 10.8 13.536 28.256 0 16.88-25.424 17.072-25.68 17.072H216.64c-8.656 0-15.728 6.848-16 15.488-.496 15.664-.992 32.336-.992 40.304 0 16.096 6.16 53.536 63.296 53.536h57.328c5.904 0 19.6 2.224 19.6 22.864 0 5.552 0 14.848-24.352 14.848z"/><path d="M362.352.008H133.664C59.968.008 0 59.96 0 133.656V362.36c0 73.696 59.968 133.648 133.664 133.648h228.672c73.696 0 133.664-59.952 133.68-133.648V133.656C496.016 59.96 436.048.008 362.352.008zM464.016 362.36c0 56.048-45.616 101.648-101.664 101.648H133.664C77.6 464.008 32 418.408 32 362.36V133.656C32 77.608 77.6 32.008 133.664 32.008h228.688c56.064 0 101.664 45.6 101.664 101.648V362.36z"/></svg>